<svg xmlns="http://www.w3.org/2000/svg" xmlns:xlink="http://www.w3.org/1999/xlink" width="500" zoomAndPan="magnify" viewBox="0 0 375 374.999991" height="500" preserveAspectRatio="xMidYMid meet" version="1.0"><defs><g/></defs><g fill="#2b2b2b" fill-opacity="1"><g transform="translate(154.840325, 280.970373)"><g><path d="M 10.011719 0 L 61.457031 0 C 104.652344 0 132.53125 -29.84375 132.335938 -71.273438 C 132.140625 -103.082031 110.933594 -137.441406 56.941406 -137.441406 L 10.011719 -137.441406 L 10.011719 -134.890625 C 15.902344 -133.121094 17.867188 -128.605469 17.867188 -112.503906 L 17.867188 -24.9375 C 17.867188 -8.835938 15.902344 -4.320312 10.011719 -2.550781 Z M 33.96875 -17.277344 L 33.96875 -134.496094 L 47.320312 -134.496094 C 91.105469 -134.496094 114.46875 -102.6875 114.46875 -63.417969 C 114.46875 -22.382812 95.421875 -2.945312 61.0625 -2.945312 L 46.730469 -2.945312 C 35.929688 -2.945312 33.96875 -8.050781 33.96875 -17.277344 Z M 33.96875 -17.277344 "/></g></g></g><g fill="#2b2b2b" fill-opacity="1"><g transform="translate(71.905283, 226.909948)"><g><path d="M 9.816406 0 L 34.558594 0 L 34.558594 -2.550781 C 25.917969 -4.910156 21.207031 -10.40625 21.207031 -32.789062 L 21.207031 -119.964844 L 71.46875 -37.304688 L 75.199219 -37.304688 L 125.070312 -121.539062 L 125.070312 -24.9375 C 125.070312 -8.835938 123.109375 -4.320312 117.21875 -2.550781 L 117.21875 0 L 149.027344 0 L 149.027344 -2.550781 C 142.9375 -4.320312 141.171875 -8.835938 141.171875 -24.9375 L 141.171875 -104.652344 C 141.171875 -127.035156 145.296875 -132.53125 153.148438 -134.890625 L 153.148438 -137.441406 L 130.960938 -137.441406 L 80.699219 -52.816406 L 29.453125 -137.441406 L 5.695312 -137.441406 L 5.695312 -134.890625 C 13.546875 -132.53125 17.671875 -127.035156 17.671875 -104.652344 L 17.671875 -24.9375 C 17.671875 -8.835938 15.902344 -4.320312 9.816406 -2.550781 Z M 9.816406 0 "/></g></g></g><path fill="#f4f4f4" d="M 108.121094 199.257812 L 266.753906 199.257812 L 266.753906 228.363281 L 108.121094 228.363281 L 108.121094 199.257812 " fill-opacity="1" fill-rule="nonzero"/><g fill="#2b2b2b" fill-opacity="1"><g transform="translate(117.853246, 219.810382)"><g><path d="M 1.011719 0 L 3.5625 0 L 3.5625 -0.261719 C 2.671875 -0.507812 2.1875 -1.074219 2.1875 -3.382812 L 2.1875 -12.371094 L 7.371094 -3.847656 L 7.753906 -3.847656 L 12.898438 -12.535156 L 12.898438 -2.570312 C 12.898438 -0.910156 12.695312 -0.445312 12.089844 -0.261719 L 12.089844 0 L 15.371094 0 L 15.371094 -0.261719 C 14.742188 -0.445312 14.558594 -0.910156 14.558594 -2.570312 L 14.558594 -10.792969 C 14.558594 -13.101562 14.984375 -13.667969 15.796875 -13.910156 L 15.796875 -14.175781 L 13.507812 -14.175781 L 8.324219 -5.445312 L 3.039062 -14.175781 L 0.585938 -14.175781 L 0.585938 -13.910156 C 1.398438 -13.667969 1.824219 -13.101562 1.824219 -10.792969 L 1.824219 -2.570312 C 1.824219 -0.910156 1.640625 -0.445312 1.011719 -0.261719 Z M 1.011719 0 "/></g></g></g><g fill="#2b2b2b" fill-opacity="1"><g transform="translate(137.861303, 219.810382)"><g><path d="M -0.34375 0 L 1.945312 0 L 1.945312 -0.261719 C 1.253906 -0.40625 1.175781 -1.074219 1.699219 -2.390625 L 2.894531 -5.347656 L 8.605469 -5.347656 L 9.839844 -2.371094 C 10.488281 -0.851562 10.652344 -0.445312 10.023438 -0.261719 L 10.023438 0 L 13.164062 0 L 13.164062 -0.261719 C 12.738281 -0.445312 12.25 -0.851562 11.625 -2.371094 L 6.640625 -14.335938 L 5.125 -13.648438 L 5.304688 -13.222656 C 5.46875 -12.898438 5.488281 -12.636719 5.347656 -12.273438 L 1.355469 -2.390625 C 0.730469 -0.851562 0.222656 -0.445312 -0.34375 -0.261719 Z M 3.015625 -5.648438 L 5.710938 -12.3125 L 8.484375 -5.648438 Z M 3.015625 -5.648438 "/></g></g></g><g fill="#2b2b2b" fill-opacity="1"><g transform="translate(154.021855, 219.810382)"><g><path d="M 11.339844 0.140625 C 11.746094 0.140625 12.273438 0.101562 12.574219 0 L 12.574219 -0.242188 C 12.472656 -0.222656 12.371094 -0.222656 12.25 -0.222656 C 11.5625 -0.222656 11.15625 -0.890625 10.1875 -3.320312 C 9.214844 -5.8125 8.828125 -7.046875 6.339844 -7.371094 C 8.972656 -7.675781 10.347656 -9.113281 10.347656 -11.015625 C 10.347656 -12.816406 9.132812 -14.175781 5.023438 -14.175781 L 1.03125 -14.175781 L 1.03125 -13.910156 C 1.660156 -13.730469 1.84375 -13.265625 1.84375 -11.601562 L 1.84375 -2.570312 C 1.84375 -0.910156 1.660156 -0.445312 1.03125 -0.261719 L 1.03125 0 L 4.3125 0 L 4.3125 -0.261719 C 3.683594 -0.445312 3.503906 -0.910156 3.503906 -2.570312 L 3.503906 -7.308594 L 4.800781 -7.308594 C 7.230469 -7.308594 7.390625 -5.894531 8.566406 -3.097656 C 9.457031 -0.992188 9.78125 0.140625 11.339844 0.140625 Z M 3.503906 -7.613281 L 3.503906 -13.832031 C 3.828125 -13.851562 4.152344 -13.871094 4.453125 -13.871094 C 7.453125 -13.871094 8.625 -12.351562 8.625 -10.550781 C 8.625 -8.828125 7.53125 -7.613281 5.203125 -7.613281 Z M 3.503906 -7.613281 "/></g></g></g><g fill="#2b2b2b" fill-opacity="1"><g transform="translate(169.595163, 219.810382)"><g><path d="M 1.03125 0 L 4.3125 0 L 4.3125 -0.261719 C 3.683594 -0.445312 3.503906 -0.910156 3.503906 -2.570312 L 3.503906 -11.601562 C 3.503906 -13.265625 3.683594 -13.730469 4.3125 -13.910156 L 4.3125 -14.175781 L 1.03125 -14.175781 L 1.03125 -13.910156 C 1.640625 -13.730469 1.84375 -13.265625 1.84375 -11.601562 L 1.84375 -2.570312 C 1.84375 -0.910156 1.640625 -0.445312 1.03125 -0.261719 Z M 1.03125 0 "/></g></g></g><g fill="#2b2b2b" fill-opacity="1"><g transform="translate(178.121492, 219.810382)"><g><path d="M -0.34375 0 L 1.945312 0 L 1.945312 -0.261719 C 1.253906 -0.40625 1.175781 -1.074219 1.699219 -2.390625 L 2.894531 -5.347656 L 8.605469 -5.347656 L 9.839844 -2.371094 C 10.488281 -0.851562 10.652344 -0.445312 10.023438 -0.261719 L 10.023438 0 L 13.164062 0 L 13.164062 -0.261719 C 12.738281 -0.445312 12.25 -0.851562 11.625 -2.371094 L 6.640625 -14.335938 L 5.125 -13.648438 L 5.304688 -13.222656 C 5.46875 -12.898438 5.488281 -12.636719 5.347656 -12.273438 L 1.355469 -2.390625 C 0.730469 -0.851562 0.222656 -0.445312 -0.34375 -0.261719 Z M 3.015625 -5.648438 L 5.710938 -12.3125 L 8.484375 -5.648438 Z M 3.015625 -5.648438 "/></g></g></g><g fill="#2b2b2b" fill-opacity="1"><g transform="translate(194.282047, 219.810382)"><g/></g></g><g fill="#2b2b2b" fill-opacity="1"><g transform="translate(201.71487, 219.810382)"><g><path d="M 1.03125 0 L 6.339844 0 C 10.792969 0 13.667969 -3.078125 13.648438 -7.351562 C 13.628906 -10.632812 11.441406 -14.175781 5.871094 -14.175781 L 1.03125 -14.175781 L 1.03125 -13.910156 C 1.640625 -13.730469 1.84375 -13.265625 1.84375 -11.601562 L 1.84375 -2.570312 C 1.84375 -0.910156 1.640625 -0.445312 1.03125 -0.261719 Z M 3.503906 -1.78125 L 3.503906 -13.871094 L 4.878906 -13.871094 C 9.394531 -13.871094 11.804688 -10.589844 11.804688 -6.539062 C 11.804688 -2.308594 9.839844 -0.304688 6.296875 -0.304688 L 4.820312 -0.304688 C 3.707031 -0.304688 3.503906 -0.832031 3.503906 -1.78125 Z M 3.503906 -1.78125 "/></g></g></g><g fill="#2b2b2b" fill-opacity="1"><g transform="translate(219.576429, 219.810382)"><g><path d="M 1.03125 0 L 4.3125 0 L 4.3125 -0.261719 C 3.683594 -0.445312 3.503906 -0.910156 3.503906 -2.570312 L 3.503906 -11.601562 C 3.503906 -13.265625 3.683594 -13.730469 4.3125 -13.910156 L 4.3125 -14.175781 L 1.03125 -14.175781 L 1.03125 -13.910156 C 1.640625 -13.730469 1.84375 -13.265625 1.84375 -11.601562 L 1.84375 -2.570312 C 1.84375 -0.910156 1.640625 -0.445312 1.03125 -0.261719 Z M 1.03125 0 "/></g></g></g><g fill="#2b2b2b" fill-opacity="1"><g transform="translate(228.102758, 219.810382)"><g><path d="M 1.4375 -11.785156 L 6.175781 0.101562 L 6.742188 0.101562 L 11.339844 -11.785156 C 11.925781 -13.324219 12.433594 -13.730469 12.980469 -13.910156 L 12.980469 -14.175781 L 10.710938 -14.175781 L 10.710938 -13.910156 C 11.402344 -13.769531 11.480469 -13.101562 10.976562 -11.765625 L 7.128906 -1.761719 L 3.21875 -11.785156 C 2.613281 -13.324219 2.46875 -13.730469 3.078125 -13.910156 L 3.078125 -14.175781 L -0.0820312 -14.175781 L -0.0820312 -13.910156 C 0.34375 -13.730469 0.832031 -13.324219 1.4375 -11.785156 Z M 1.4375 -11.785156 "/></g></g></g><g fill="#2b2b2b" fill-opacity="1"><g transform="translate(244.162068, 219.810382)"><g><path d="M -0.34375 0 L 1.945312 0 L 1.945312 -0.261719 C 1.253906 -0.40625 1.175781 -1.074219 1.699219 -2.390625 L 2.894531 -5.347656 L 8.605469 -5.347656 L 9.839844 -2.371094 C 10.488281 -0.851562 10.652344 -0.445312 10.023438 -0.261719 L 10.023438 0 L 13.164062 0 L 13.164062 -0.261719 C 12.738281 -0.445312 12.25 -0.851562 11.625 -2.371094 L 6.640625 -14.335938 L 5.125 -13.648438 L 5.304688 -13.222656 C 5.46875 -12.898438 5.488281 -12.636719 5.347656 -12.273438 L 1.355469 -2.390625 C 0.730469 -0.851562 0.222656 -0.445312 -0.34375 -0.261719 Z M 3.015625 -5.648438 L 5.710938 -12.3125 L 8.484375 -5.648438 Z M 3.015625 -5.648438 "/></g></g></g></svg>